<svg xmlns="http://www.w3.org/2000/svg" width="512" height="512">
  <rect width="512" height="512" fill="#ffffff"/>
  <rect x="40" y="40" width="140" height="140" fill="#111111"/>
  <rect x="60" y="60" width="100" height="100" fill="#ffffff"/>
  <rect x="80" y="80" width="60" height="60" fill="#111111"/>
  <rect x="332" y="40" width="140" height="140" fill="#111111"/>
  <rect x="352" y="60" width="100" height="100" fill="#ffffff"/>
  <rect x="372" y="80" width="60" height="60" fill="#111111"/>
  <rect x="40" y="332" width="140" height="140" fill="#111111"/>
  <rect x="60" y="352" width="100" height="100" fill="#ffffff"/>
  <rect x="80" y="372" width="60" height="60" fill="#111111"/>
  <!-- pattern -->
  <g fill="#111111">
    <rect x="230" y="230" width="32" height="32"/>
    <rect x="278" y="230" width="16" height="16"/>
    <rect x="230" y="278" width="16" height="16"/>
    <rect x="300" y="260" width="20" height="20"/>
    <rect x="260" y="300" width="18" height="18"/>
    <rect x="340" y="300" width="26" height="26"/>
    <rect x="230" y="340" width="24" height="24"/>
    <rect x="290" y="340" width="14" height="14"/>
    <rect x="360" y="250" width="18" height="18"/>
  </g>
  <text x="256" y="500" text-anchor="middle" font-family="Arial, sans-serif" font-size="22" fill="#333">
    QR DE DONACIÓN (REEMPLAZAR)
  </text>
</svg>